<svg width="51" height="51" viewBox="0 0 51 51" fill="none" xmlns="http://www.w3.org/2000/svg">
<circle cx="25.0625" cy="25.8438" r="25" fill="#50286D"/>
<g clip-path="url(#clip0_2211_100725)">
<path d="M19.0661 36.203C19.0661 36.8366 18.5477 37.3551 17.914 37.3551H13.1521C12.5184 37.3551 12 36.8366 12 36.203V30.9802C12 30.3466 12.5184 29.8281 13.1521 29.8281H17.914C18.5477 29.8281 19.0661 30.3466 19.0661 30.9802V36.203Z" fill="white"/>
<path d="M27.5348 36.2023C27.5348 36.836 27.0164 37.3544 26.3828 37.3544H21.6208C20.9872 37.3544 20.4688 36.836 20.4688 36.2023V28.2146C20.4688 27.5809 20.9872 27.0625 21.6208 27.0625H26.3828C27.0164 27.0625 27.5348 27.5809 27.5348 28.2146V36.2023Z" fill="white"/>
<path d="M36.0036 36.2003C36.0036 36.834 35.4852 37.3524 34.8515 37.3524H30.0896C29.4559 37.3524 28.9375 36.834 28.9375 36.2003V25.1404C28.9375 24.5067 29.4559 23.9883 30.0896 23.9883H34.8515C35.4852 23.9883 36.0036 24.5067 36.0036 25.1404V36.2003Z" fill="white"/>
<path d="M35.0034 15.6699L29.8286 16.9289C29.418 17.0283 29.3266 17.354 29.6253 17.6527L30.7295 18.7312C30.8222 18.8368 30.7122 18.9774 30.625 19.0369C29.9296 19.5116 28.8262 20.2081 27.3009 21.0038C18.9971 25.3362 12.152 25.0704 12.049 25.0658C11.4996 25.0379 11.0298 25.4612 11.0013 26.0115C10.973 26.5622 11.3964 27.0317 11.947 27.0601C11.9875 27.0622 12.1521 27.0696 12.4288 27.0696C14.2036 27.0696 20.5787 26.7634 28.2246 22.7744C30.0338 21.8305 31.2877 21.0164 32.0199 20.5011C32.1234 20.4282 32.3039 20.3025 32.4704 20.472L33.6781 21.6797C33.9768 21.9784 34.301 21.8865 34.3986 21.4755L35.5726 16.2365C35.6702 15.8255 35.4139 15.5705 35.0034 15.6699Z" fill="white"/>
</g>
<defs>
<clipPath id="clip0_2211_100725">
<rect width="25" height="25" fill="white" transform="translate(11 14)"/>
</clipPath>
</defs>
</svg>
