<svg width="51" height="51" viewBox="0 0 51 51" fill="none" xmlns="http://www.w3.org/2000/svg">
<circle cx="25.9531" cy="25.8438" r="25" fill="#50286D"/>
<path d="M22 12.25C20.665 12.25 19.3599 12.6459 18.2499 13.3876C17.1399 14.1293 16.2747 15.1835 15.7638 16.4169C15.2529 17.6503 15.1193 19.0075 15.3797 20.3169C15.6402 21.6262 16.283 22.829 17.227 23.773C18.171 24.717 19.3738 25.3598 20.6831 25.6203C21.9925 25.8808 23.3497 25.7471 24.5831 25.2362C25.8165 24.7253 26.8707 23.8601 27.6124 22.7501C28.3541 21.6401 28.75 20.335 28.75 19C28.748 17.2104 28.0363 15.4946 26.7708 14.2292C25.5054 12.9637 23.7896 12.252 22 12.25ZM25.2918 17.9637L23.9043 19.0736C23.8473 19.1193 23.8052 19.1809 23.7835 19.2506C23.7617 19.3203 23.7613 19.3949 23.7822 19.4649L24.4182 21.5845C24.4404 21.6584 24.4387 21.7374 24.4133 21.8102C24.388 21.883 24.3403 21.946 24.2771 21.9901C24.2138 22.0343 24.1383 22.0573 24.0612 22.056C23.9841 22.0547 23.9094 22.0291 23.8477 21.9829L22.2197 20.762C22.1564 20.7144 22.0792 20.6887 22 20.6887C21.9208 20.6887 21.8437 20.7144 21.7803 20.762L20.1523 21.9829C20.0906 22.0291 20.0159 22.0548 19.9388 22.0561C19.8617 22.0574 19.7862 22.0343 19.723 21.9902C19.6597 21.946 19.612 21.883 19.5867 21.8102C19.5613 21.7374 19.5596 21.6584 19.5818 21.5846L20.2178 19.4649C20.2388 19.395 20.2384 19.3203 20.2166 19.2506C20.1949 19.1809 20.1528 19.1193 20.0957 19.0737L18.7083 17.9637C18.649 17.9163 18.6059 17.8517 18.585 17.7787C18.5641 17.7058 18.5663 17.6281 18.5914 17.5565C18.6166 17.4849 18.6633 17.4228 18.7252 17.3789C18.7871 17.335 18.8611 17.3114 18.937 17.3114H20.5264C20.598 17.3114 20.6681 17.2903 20.728 17.2509C20.7878 17.2114 20.8348 17.1553 20.863 17.0894L21.6633 15.222C21.6916 15.1561 21.7385 15.1 21.7984 15.0605C21.8582 15.0211 21.9283 15 22 15C22.0717 15 22.1418 15.0211 22.2016 15.0605C22.2615 15.1 22.3084 15.1561 22.3367 15.222L23.137 17.0894C23.1653 17.1553 23.2122 17.2114 23.2721 17.2509C23.3319 17.2903 23.402 17.3114 23.4737 17.3114H25.063C25.1389 17.3115 25.2129 17.3351 25.2748 17.379C25.3367 17.4229 25.3834 17.4849 25.4085 17.5565C25.4336 17.6281 25.4359 17.7058 25.415 17.7787C25.3941 17.8517 25.351 17.9163 25.2918 17.9637Z" fill="white"/>
<path d="M37 30.25C36.4463 30.2484 35.9051 30.4148 35.448 30.7272C34.9909 31.0397 34.6394 31.4835 34.4399 32C34.1867 32.6426 34.1867 33.3574 34.4399 34C34.622 34.466 34.9278 34.8734 35.3243 35.1784C35.7208 35.4834 36.193 35.6745 36.69 35.731C37.1871 35.7876 37.6901 35.7074 38.145 35.4992C38.5998 35.291 38.9893 34.9626 39.2713 34.5495C39.5534 34.1363 39.7174 33.654 39.7456 33.1546C39.7739 32.6551 39.6653 32.1574 39.4316 31.7151C39.198 31.2728 38.848 30.9026 38.4195 30.6444C37.9911 30.3863 37.5003 30.2499 37 30.25ZM37 34.25C36.7589 34.2496 36.523 34.1796 36.3207 34.0483C36.1184 33.917 35.9584 33.7301 35.8599 33.51C35.7875 33.3497 35.75 33.1759 35.75 33C35.75 32.8241 35.7875 32.6503 35.8599 32.49C35.9517 32.2848 36.0972 32.1082 36.281 31.9788C36.4648 31.8493 36.6801 31.7719 36.9043 31.7546C37.1284 31.7373 37.3531 31.7808 37.5546 31.8805C37.7561 31.9802 37.9269 32.1324 38.0492 32.3211C38.1714 32.5097 38.2405 32.7279 38.2491 32.9525C38.2577 33.1772 38.2055 33.4 38.0981 33.5975C37.9907 33.795 37.832 33.9598 37.6387 34.0747C37.4455 34.1895 37.2248 34.2501 37 34.25Z" fill="white"/>
<path d="M37 32.25C36.849 32.2496 36.7014 32.2949 36.5767 32.3801C36.4521 32.4654 36.3562 32.5864 36.3018 32.7273C36.2327 32.9025 36.2327 33.0975 36.3018 33.2727C36.3515 33.3998 36.4348 33.5109 36.543 33.5941C36.6511 33.6773 36.7799 33.7294 36.9155 33.7448C37.051 33.7603 37.1882 33.7384 37.3123 33.6816C37.4363 33.6248 37.5425 33.5353 37.6195 33.4226C37.6964 33.3099 37.7411 33.1784 37.7488 33.0422C37.7565 32.9059 37.7269 32.7702 37.6632 32.6496C37.5995 32.5289 37.504 32.428 37.3872 32.3576C37.2703 32.2872 37.1364 32.25 37 32.25Z" fill="white"/>
<path d="M35.75 33C35.7508 33.1758 35.7882 33.3495 35.8599 33.51C35.7698 33.6579 35.6437 33.7804 35.4933 33.8661C35.3428 33.9518 35.1731 33.9979 35 34H29C28.735 34.0008 28.4811 34.1064 28.2937 34.2937C28.1064 34.4811 28.0008 34.735 28 35V36.5C28 37.4283 27.6313 38.3185 26.9749 38.9749C26.3185 39.6313 25.4283 40 24.5 40C23.5717 40 22.6815 39.6313 22.0251 38.9749C21.3687 38.3185 21 37.4283 21 36.5V30C21 29.7348 21.1054 29.4804 21.2929 29.2929C21.4804 29.1054 21.7348 29 22 29C22.2652 29 22.5196 29.1054 22.7071 29.2929C22.8946 29.4804 23 29.7348 23 30V36.5C23 36.8978 23.158 37.2794 23.4393 37.5607C23.7206 37.842 24.1022 38 24.5 38C24.8978 38 25.2794 37.842 25.5607 37.5607C25.842 37.2794 26 36.8978 26 36.5V35C26.0023 34.2051 26.3192 33.4434 26.8813 32.8813C27.4434 32.3192 28.2051 32.0023 29 32H35C35.1731 32.0021 35.3428 32.0482 35.4933 32.1339C35.6437 32.2196 35.7698 32.3421 35.8599 32.49C35.7882 32.6505 35.7508 32.8242 35.75 33Z" fill="white"/>
<path d="M16.6661 31C15.9636 31.0002 15.2834 30.7538 14.744 30.3038C14.2046 29.8538 13.8402 29.2287 13.7144 28.5376L12.2276 20.3579C12.1752 20.0697 12.1867 19.7735 12.2614 19.4902C12.3361 19.2069 12.4721 18.9435 12.6598 18.7186C12.8475 18.4937 13.0823 18.3127 13.3477 18.1886C13.613 18.0644 13.9024 18 14.1953 18H15.9971C16.2623 18 16.5167 18.1054 16.7042 18.2929C16.8917 18.4804 16.9971 18.7348 16.9971 19C16.9971 19.2652 16.8917 19.5196 16.7042 19.7071C16.5167 19.8946 16.2623 20 15.9971 20H14.1953L15.6822 28.1787C15.7239 28.4092 15.8453 28.6177 16.0252 28.7678C16.205 28.9179 16.4318 29.0001 16.6661 29H27.3282C27.5625 29 27.7893 28.9177 27.9692 28.7675C28.149 28.6173 28.2703 28.4088 28.3121 28.1782L29.7989 19.9995L27.9971 20C27.7319 20 27.4775 19.8946 27.29 19.7071C27.1025 19.5196 26.9971 19.2652 26.9971 19C26.9971 18.7348 27.1025 18.4804 27.29 18.2929C27.4775 18.1054 27.7319 18 27.9971 18H29.7989C30.0918 18 30.3812 18.0644 30.6465 18.1886C30.9118 18.3127 31.1467 18.4937 31.3344 18.7186C31.5221 18.9435 31.6581 19.2069 31.7328 19.4902C31.8075 19.7735 31.819 20.0697 31.7666 20.3579L30.2798 28.5371C30.1541 29.2283 29.7898 29.8535 29.2504 30.3036C28.711 30.7537 28.0307 31.0002 27.3281 31H16.6661Z" fill="white"/>
</svg>
