<svg width="48" height="47" viewBox="0 0 48 47" fill="none" xmlns="http://www.w3.org/2000/svg">
<circle cx="23.9348" cy="23.9231" r="23.0754" fill="#50286D"/>
<g clip-path="url(#clip0_2211_100737)">
<path d="M15.0951 24.5055C15.0951 20.9784 17.2783 17.952 20.3642 16.7057L21.9388 13.543C16.5711 14.3055 12.4297 18.9305 12.4297 24.5055C12.4297 29.5776 15.8578 33.8639 20.5185 35.1699L20.8214 32.4751C17.4961 31.3531 15.0951 28.2045 15.0951 24.5055Z" fill="white"/>
<path d="M36.2566 24.5034C36.2566 19.4323 32.83 15.1469 28.1709 13.8398L27.8612 16.5327C31.1884 17.6536 33.5913 20.8031 33.5913 24.5034C33.5913 28.01 31.4334 31.0215 28.376 32.2813L26.7578 35.4645C32.1205 34.6976 36.2566 30.0748 36.2566 24.5034Z" fill="white"/>
<path d="M30.6864 23.1625C30.7914 22.956 30.7815 22.7292 30.6603 22.5318C30.5392 22.3343 30.3241 22.2556 30.0924 22.2556H25.0264L26.117 12.7746C26.1541 12.4532 25.9549 12.1202 25.6445 12.0281C25.5805 12.0091 25.5156 12 25.4515 12C25.2055 12 24.9729 12.14 24.8584 12.37L18.0073 26.1363C17.9045 26.3428 17.9158 26.6178 18.0373 26.814C18.1588 27.0102 18.373 27.1699 18.6039 27.1699H23.603L22.5782 36.2941C22.5424 36.6143 22.7407 36.8836 23.0494 36.9758C23.1128 36.9948 23.177 37 23.2404 37C23.4859 37 23.7185 36.8637 23.8345 36.6353L30.6864 23.1625Z" fill="white"/>
</g>
<defs>
<clipPath id="clip0_2211_100737">
<rect width="25" height="25" fill="white" transform="translate(11 12)"/>
</clipPath>
</defs>
</svg>
