<svg width="47" height="47" viewBox="0 0 47 47" fill="none" xmlns="http://www.w3.org/2000/svg">
<circle cx="23.1379" cy="23.6106" r="23.0754" fill="#50286D"/>
<g clip-path="url(#clip0_2211_100750)">
<path d="M13.2461 25.2344H11.7324C11.3276 25.2344 11 25.562 11 25.9668V36.2695C11 36.6744 11.3276 37.002 11.7324 37.002H13.2461C14.4577 37.002 15.4434 36.0163 15.4434 34.8047V27.4316C15.4434 26.22 14.4577 25.2344 13.2461 25.2344Z" fill="white"/>
<path d="M23.502 12C19.0595 12 15.4453 15.663 15.4453 20.1055C15.4453 21.6205 15.8676 23.0771 16.6442 24.3328C17.6281 23.7837 18.7212 23.48 19.8556 23.48C21.4132 23.48 22.9871 24.025 24.3224 25.2324H27.9453C28.4754 25.2324 28.9637 25.3898 29.3931 25.6369C30.7615 24.1923 31.6074 22.2478 31.6074 20.1055C31.6074 15.663 27.9444 12 23.502 12ZM23.502 17.9082C24.7136 17.9082 25.6993 18.8938 25.6993 20.1055C25.6993 20.9902 25.1729 21.7849 24.3582 22.1296C24.3177 22.1468 24.2754 22.1535 24.2344 22.1681V23.0352C24.2344 23.44 23.9068 23.7676 23.502 23.7676C23.0972 23.7676 22.7696 23.44 22.7696 23.0352V22.1701C22.3895 22.0421 22.021 21.8275 21.6903 21.5074C21.3999 21.2263 21.3927 20.7628 21.6746 20.4717C21.9557 20.1813 22.4206 20.1749 22.7103 20.456C23.0657 20.8 23.4584 20.9194 23.7867 20.7807C24.0585 20.6655 24.2345 20.4009 24.2345 20.1055C24.2345 19.7014 23.9062 19.373 23.5021 19.373C22.2904 19.373 21.3048 18.3874 21.3048 17.1758C21.3047 16.2552 21.8855 15.4255 22.7502 15.1108C22.7566 15.1085 22.7632 15.1096 22.7696 15.1074V14.1973C22.7696 13.7924 23.0972 13.4648 23.502 13.4648C23.9068 13.4648 24.2344 13.7924 24.2344 14.1973V15.0989C24.7174 15.2616 25.1786 15.5843 25.5741 16.0557C25.8345 16.3654 25.7944 16.8275 25.484 17.0871C25.175 17.3482 24.7115 17.3081 24.4526 16.997C24.0649 16.5363 23.6279 16.3511 23.2517 16.487C22.9634 16.5921 22.7696 16.8689 22.7696 17.1758C22.7696 17.5799 23.0979 17.9082 23.502 17.9082Z" fill="white"/>
<path d="M35.3975 25.5112C34.7969 25.0717 33.9619 25.1596 33.4639 25.7016L29.5088 30.6235C29.2305 30.9164 28.7032 31.0922 28.4249 31.0922H23.498C23.0878 31.0922 22.7656 30.77 22.7656 30.3598C22.7656 29.9496 23.0878 29.6274 23.498 29.6274C26.7793 29.6274 24.2939 29.6274 27.9414 29.6274C28.7471 29.6274 29.4062 28.9682 29.4062 28.1625C29.4062 27.3569 28.7471 26.6977 27.9414 26.6977C24.5017 26.6977 27.7339 26.6977 24.0547 26.6977C23.6896 26.6977 23.5076 26.4662 23.2197 26.2142C22.7803 25.8188 22.2822 25.5258 21.7695 25.3207C20.1822 24.6725 18.348 24.8686 16.9062 25.8713C16.9062 28.5382 16.9062 32.5121 16.9062 35.5355H27.9414C29.3184 35.5355 30.6368 34.8275 31.4571 33.7289L35.7051 27.5766C36.1885 26.932 36.0566 25.9946 35.3975 25.5112Z" fill="white"/>
</g>
<defs>
<clipPath id="clip0_2211_100750">
<rect width="25" height="25" fill="white" transform="translate(11 12)"/>
</clipPath>
</defs>
</svg>
