<svg width="47" height="47" viewBox="0 0 47 47" fill="none" xmlns="http://www.w3.org/2000/svg">
<circle cx="23.7316" cy="23.9191" r="23.0754" fill="#50286D"/>
<g clip-path="url(#clip0_2211_100758)">
<path d="M29.4107 21.4954C28.9675 21.6456 28.5506 21.8409 28.16 22.0813C27.7694 22.3217 27.4051 22.6071 27.0671 22.9376H24.1939V21.4954H29.4107ZM25.2756 27.2643C25.2756 27.5046 25.2906 27.745 25.3207 27.9854C25.3507 28.2257 25.3995 28.4661 25.4672 28.7065H24.1939V27.2643H25.2756ZM35.7316 18.611V22.9264C35.5213 22.716 35.296 22.5282 35.0556 22.363C34.8152 22.1977 34.5599 22.04 34.2894 21.8898V20.0532H32.8472V21.3264C32.6069 21.2663 32.3665 21.2212 32.1261 21.1912C31.8857 21.1611 31.6454 21.1424 31.405 21.1349V17.1688H14.0985V28.7853C14.0985 28.9731 14.1323 29.1497 14.1999 29.3149C14.2675 29.4802 14.3651 29.6229 14.4928 29.7431C14.6205 29.8632 14.767 29.9609 14.9322 30.036C15.0975 30.1111 15.274 30.1487 15.4618 30.1487H24.9489L23.5066 31.5909H15.4618C15.0787 31.5909 14.7182 31.5195 14.3801 31.3768C14.0421 31.2341 13.7417 31.0313 13.4788 30.7684C13.2159 30.5055 13.0168 30.2088 12.8816 29.8783C12.7464 29.5478 12.6713 29.1835 12.6562 28.7853V15.7266H32.8472V18.611H35.7316ZM29.9628 20.0532H15.5407V18.611H29.9628V20.0532ZM15.5407 21.4954H22.7517V28.7065H15.5407V21.4954ZM16.9829 27.2643H21.3095V22.9376H16.9829V27.2643ZM24.1939 24.3798H25.6362V25.27C25.5686 25.4577 25.5122 25.6418 25.4672 25.8221H24.1939V24.3798ZM31.405 22.9376C31.9984 22.9376 32.558 23.0503 33.0838 23.2756C33.6096 23.501 34.0678 23.809 34.4584 24.1996C34.849 24.5902 35.1608 25.0521 35.3936 25.5854C35.6265 26.1188 35.7392 26.6784 35.7316 27.2643C35.7316 27.8652 35.619 28.4248 35.3936 28.9431C35.1683 29.4614 34.8603 29.9196 34.4697 30.3177C34.0791 30.7158 33.6172 31.0275 33.0838 31.2529C32.5505 31.4782 31.9909 31.5909 31.405 31.5909C30.9543 31.5909 30.5187 31.5233 30.098 31.3881C29.6774 31.2529 29.2792 31.0501 28.9037 30.7797L23.9799 35.7035C23.8372 35.8462 23.6681 35.9175 23.4728 35.9175C23.2775 35.9175 23.1085 35.8462 22.9658 35.7035C22.8231 35.5607 22.7517 35.3917 22.7517 35.1964C22.7517 35.0011 22.8231 34.8321 22.9658 34.6894L27.8896 29.7656C27.6267 29.3975 27.4277 29.0032 27.2925 28.5825C27.1572 28.1619 27.0859 27.7225 27.0784 27.2643C27.0784 26.6709 27.191 26.1112 27.4164 25.5854C27.6417 25.0596 27.9497 24.6014 28.3403 24.2108C28.7309 23.8202 29.1891 23.5085 29.7149 23.2756C30.2407 23.0428 30.8041 22.9301 31.405 22.9376ZM31.405 30.1487C31.8031 30.1487 32.1749 30.0736 32.5205 29.9233C32.866 29.7731 33.174 29.5665 33.4444 29.3036C33.7148 29.0407 33.9214 28.7365 34.0641 28.391C34.2068 28.0455 34.2819 27.6699 34.2894 27.2643C34.2894 26.8662 34.2143 26.4943 34.0641 26.1488C33.9139 25.8033 33.7073 25.4953 33.4444 25.2249C33.1815 24.9545 32.8773 24.7479 32.5317 24.6052C32.1862 24.4625 31.8106 24.3873 31.405 24.3798C31.0069 24.3798 30.6351 24.455 30.2895 24.6052C29.944 24.7554 29.636 24.962 29.3656 25.2249C29.0952 25.4878 28.8887 25.792 28.7459 26.1375C28.6032 26.4831 28.5281 26.8586 28.5206 27.2643C28.5206 27.6624 28.5957 28.0342 28.7459 28.3797C28.8962 28.7253 29.1027 29.0332 29.3656 29.3036C29.6285 29.5741 29.9328 29.7806 30.2783 29.9233C30.6238 30.0661 30.9994 30.1412 31.405 30.1487Z" fill="white"/>
</g>
<defs>
<clipPath id="clip0_2211_100758">
<rect width="23.0754" height="23.0754" fill="white" transform="translate(12.6562 12.8438)"/>
</clipPath>
</defs>
</svg>
