<svg width="54" height="54" viewBox="0 0 54 54" fill="none" xmlns="http://www.w3.org/2000/svg">
<circle cx="27.2183" cy="26.9371" r="26.7261" fill="#50286D"/>
<g clip-path="url(#clip0_2211_99908)">
<path fill-rule="evenodd" clip-rule="evenodd" d="M31.0936 24.9205C30.1254 24.9205 29.6396 26.0934 30.3241 26.778C30.4503 26.9041 30.4503 27.1086 30.3241 27.2347L29.6289 27.9301C29.5028 28.0562 29.2982 28.0562 29.1721 27.9301C28.4876 27.2455 27.3146 27.7313 27.3146 28.6995C27.3146 28.8779 27.17 29.0225 26.9916 29.0225H26.0084C25.83 29.0225 25.6854 28.8779 25.6854 28.6995C25.6854 27.7301 24.5133 27.2447 23.8279 27.9301C23.7018 28.0562 23.4972 28.0562 23.3711 27.9301L22.6759 27.2347C22.5497 27.1086 22.5497 26.9041 22.6759 26.778C23.3604 26.0934 22.8746 24.9205 21.9065 24.9205C21.7281 24.9205 21.5835 24.7759 21.5835 24.5975V23.6143C21.5835 23.436 21.7281 23.2913 21.9065 23.2913C22.8747 23.2913 23.3605 22.1184 22.6759 21.4338C22.5497 21.3077 22.5497 21.1032 22.6759 20.977L23.3711 20.2818C23.4972 20.1557 23.7018 20.1557 23.8279 20.2818C24.5124 20.9663 25.6854 20.4806 25.6854 19.5124C25.6854 19.4997 25.6862 19.4872 25.6876 19.4749L26.6924 19.1895H26.9916C27.1699 19.1895 27.3145 19.334 27.3145 19.5124C27.3145 19.9135 27.5123 20.2282 27.7924 20.4139C27.5505 20.9452 27.5344 21.5555 27.7438 22.0974C27.3825 21.8732 26.9564 21.7436 26.5 21.7436C25.1953 21.7436 24.1378 22.8013 24.1378 24.1059C24.1378 25.4105 25.1954 26.4681 26.5 26.4681C27.8046 26.4681 28.8622 25.4105 28.8622 24.1059C28.8622 23.7798 28.7962 23.4691 28.6767 23.1865C29.313 23.5538 30.0988 23.5709 30.749 23.2377C30.8551 23.2722 30.9703 23.2913 31.0934 23.2913C31.2719 23.2913 31.4164 23.4359 31.4164 23.6142V24.5974C31.4165 24.7759 31.272 24.9205 31.0936 24.9205ZM34.6945 13.3423L35.9998 12.8003C36.283 12.6827 36.6099 12.8176 36.7278 13.1007C37.4645 14.8698 38.2013 16.639 38.938 18.4082C39.0572 18.6942 38.9236 19.018 38.6374 19.1368L37.3321 19.6789C37.049 19.7965 36.7221 19.6616 36.6042 19.3785C35.8675 17.6094 35.1307 15.8402 34.3939 14.0711C34.2748 13.7849 34.4083 13.4612 34.6945 13.3423ZM30.3424 18.8717L28.8294 20.3831C28.3176 20.8949 28.3176 21.7326 28.8293 22.2444C29.3411 22.7562 30.1786 22.7562 30.6905 22.2443L32.0544 20.8804C32.867 20.7355 33.6369 20.2848 34.1186 19.7894C34.5863 19.5566 35.0775 19.3353 35.5768 19.1167L33.8738 15.0275L33.563 15.1786C33.1928 15.3586 32.8147 15.3908 32.4194 15.276L29.7044 14.4877C28.844 14.2378 27.7782 14.6949 26.9774 15.0036L21.882 16.9671C20.5401 17.4842 20.208 20.1506 23.3837 19.2484L27.8623 17.976C28.8397 17.6983 29.5645 18.2645 30.3424 18.8717ZM40.7084 30.2689C40.8868 30.2689 41.0313 30.1243 41.0313 29.9459V28.9627C41.0313 28.7844 40.8868 28.6397 40.7084 28.6397C39.7401 28.6397 39.2544 27.4668 39.939 26.7822C40.0651 26.6561 40.0651 26.4516 39.939 26.3255L39.2437 25.6302C39.1175 25.5041 38.913 25.5041 38.7869 25.6302C38.1024 26.3147 36.9294 25.829 36.9294 24.8608C36.9294 24.6824 36.7848 24.5379 36.6064 24.5379H35.6231C35.4448 24.5379 35.3002 24.6824 35.3002 24.8608C35.3002 25.829 34.1272 26.3148 33.4427 25.6302C33.3165 25.5041 33.112 25.5041 32.9859 25.6302L32.2906 26.3255C32.1645 26.4516 32.1645 26.6561 32.2906 26.7822C32.9752 27.4668 32.4894 28.6397 31.5213 28.6397C31.3428 28.6397 31.1983 28.7844 31.1983 28.9627V29.9459C31.1983 30.1242 31.3428 30.2689 31.5213 30.2689C32.4895 30.2689 32.9752 31.4418 32.2906 32.1264C32.1645 32.2525 32.1645 32.457 32.2906 32.5832L32.9859 33.2784C33.112 33.4045 33.3165 33.4045 33.4427 33.2784C34.1281 32.593 35.3002 33.0784 35.3002 34.0478C35.3002 34.2263 35.4448 34.3708 35.6231 34.3708H36.6064C36.7847 34.3708 36.9294 34.2263 36.9294 34.0478C36.9294 33.0796 38.1023 32.5939 38.7869 33.2784C38.913 33.4045 39.1175 33.4045 39.2437 33.2784L39.939 32.5832C40.0651 32.457 40.0651 32.2525 39.939 32.1264C39.2544 31.4418 39.7401 30.2689 40.7084 30.2689ZM36.1148 27.0921C37.4194 27.0921 38.4771 28.1497 38.4771 29.4543C38.4771 30.7589 37.4194 31.8166 36.1148 31.8166C34.8102 31.8166 33.7526 30.7589 33.7526 29.4543C33.7526 28.1497 34.8102 27.0921 36.1148 27.0921ZM21.4788 31.5916C21.6572 31.5916 21.8017 31.4471 21.8017 31.2687V30.2855C21.8017 30.1072 21.6572 29.9625 21.4788 29.9625C20.5106 29.9625 20.0248 28.7896 20.7094 28.105C20.8355 27.9789 20.8355 27.7743 20.7094 27.6482L20.0141 26.9529C19.888 26.8268 19.6835 26.8268 19.5573 26.9529C18.8728 27.6374 17.6998 27.1517 17.6998 26.1835C17.6998 26.0051 17.5552 25.8606 17.3769 25.8606H16.3936C16.2153 25.8606 16.0706 26.0051 16.0706 26.1835C16.0706 27.1517 14.8976 27.6375 14.2131 26.9529C14.087 26.8268 13.8825 26.8268 13.7563 26.9529L13.0611 27.6482C12.935 27.7743 12.935 27.9789 13.0611 28.105C13.7456 28.7895 13.2599 29.9625 12.2917 29.9625C12.1133 29.9625 11.9688 30.1072 11.9688 30.2855V31.2687C11.9688 31.447 12.1133 31.5916 12.2917 31.5916C13.2599 31.5916 13.7457 32.7646 13.0611 33.4492C12.935 33.5753 12.935 33.7798 13.0611 33.9059L13.7563 34.6012C13.8825 34.7273 14.087 34.7273 14.2131 34.6012C14.8986 33.9157 16.0706 34.4012 16.0706 35.3706C16.0706 35.549 16.2153 35.6936 16.3936 35.6936H17.3769C17.5552 35.6936 17.6998 35.549 17.6998 35.3706C17.6998 34.4024 18.8728 33.9166 19.5573 34.6012C19.6835 34.7273 19.888 34.7273 20.0141 34.6012L20.7094 33.9059C20.8355 33.7798 20.8355 33.5753 20.7094 33.4492C20.0248 32.7646 20.5106 31.5916 21.4788 31.5916ZM34.9631 37.0599C35.0518 36.8441 35.2986 36.7411 35.5143 36.8297C35.7301 36.9184 35.8331 37.1653 35.7445 37.381C34.3645 40.7455 30.1837 42.2441 26.7927 42.2441C23.7084 42.2441 20.1261 41.0556 18.3626 38.3673L18.0552 39.5145C17.9949 39.7403 17.7629 39.8745 17.5371 39.8141C17.3112 39.7538 17.1771 39.5218 17.2374 39.296L17.8228 37.1113C17.8831 36.8854 18.1152 36.7513 18.3409 36.8116L20.5256 37.397C20.7514 37.4573 20.8856 37.6894 20.8252 37.9152C20.7649 38.141 20.5329 38.2752 20.3071 38.2148L19.0533 37.8789C20.6472 40.3415 23.9934 41.3965 26.7927 41.3965C29.822 41.3965 33.7206 40.0889 34.9631 37.0599ZM16.8853 28.4148C18.1899 28.4148 19.2475 29.4724 19.2475 30.777C19.2475 32.0816 18.1899 33.1393 16.8853 33.1393C15.5806 33.1393 14.523 32.0816 14.523 30.777C14.523 29.4724 15.5806 28.4148 16.8853 28.4148Z" fill="white"/>
</g>
<defs>
<clipPath id="clip0_2211_99908">
<rect width="31" height="31" fill="white" transform="translate(11 12)"/>
</clipPath>
</defs>
</svg>
