<svg width="55" height="54" viewBox="0 0 55 54" fill="none" xmlns="http://www.w3.org/2000/svg">
<circle cx="27.7027" cy="26.9371" r="26.7261" fill="#50286D"/>
<path d="M24.5391 27.8983C24.5391 26.895 25.0874 25.9967 25.9741 25.5533L28.3074 24.3633C28.6807 24.1767 29.0891 24.0833 29.4974 24.0833H32.7057V18.8333C32.7057 17.06 31.2707 15.625 29.4974 15.625H18.9974C17.2241 15.625 15.7891 17.06 15.7891 18.8333V34C15.7891 35.7733 17.2241 37.2083 18.9974 37.2083H27.0007C25.4491 35.54 24.5391 33.3117 24.5391 30.9433V27.8983ZM18.9974 19.125H27.1641C27.6471 19.125 28.0391 19.517 28.0391 20C28.0391 20.483 27.6471 20.875 27.1641 20.875H18.9974C18.5144 20.875 18.1224 20.483 18.1224 20C18.1224 19.517 18.5144 19.125 18.9974 19.125ZM22.4974 27.875H18.9974C18.5144 27.875 18.1224 27.483 18.1224 27C18.1224 26.517 18.5144 26.125 18.9974 26.125H22.4974C22.9804 26.125 23.3724 26.517 23.3724 27C23.3724 27.483 22.9804 27.875 22.4974 27.875ZM23.6641 24.375H18.9974C18.5144 24.375 18.1224 23.983 18.1224 23.5C18.1224 23.017 18.5144 22.625 18.9974 22.625H23.6641C24.1471 22.625 24.5391 23.017 24.5391 23.5C24.5391 23.983 24.1471 24.375 23.6641 24.375ZM36.8941 27.112L34.5607 25.9278C34.4382 25.866 34.3017 25.8333 34.1641 25.8333H29.4974C29.3597 25.8333 29.2244 25.866 29.1007 25.9278L26.7674 27.112C26.4734 27.2613 26.2891 27.5635 26.2891 27.8925V30.9468C26.2891 34.0467 28.2257 36.8618 31.1121 37.9527C31.3431 38.0402 31.5857 38.0833 31.8296 38.0833C32.0734 38.0833 32.3184 38.039 32.5529 37.9515C35.4357 36.8618 37.3724 34.0467 37.3724 30.9468V27.8925C37.3724 27.5635 37.1881 27.2613 36.8941 27.112ZM34.2341 30.7777L32.1341 33.1285C31.9672 33.314 31.7304 33.4202 31.4807 33.4202C31.2311 33.4202 30.9942 33.314 30.8274 33.1285L29.4274 31.5605C29.1066 31.2 29.1369 30.647 29.4974 30.325C29.8591 30.0042 30.4097 30.0333 30.7341 30.395L31.4819 31.2315L32.9286 29.611C33.2494 29.2505 33.8024 29.2202 34.1652 29.541C34.5257 29.863 34.5561 30.416 34.2352 30.7765L34.2341 30.7777Z" fill="white"/>
</svg>
